<?xml version="1.0" encoding="UTF-8"?>
<svg id="Layer_1" data-name="Layer 1" xmlns="http://www.w3.org/2000/svg" xmlns:xlink="http://www.w3.org/1999/xlink" viewBox="0 0 140 140">
  <defs>
    <style>
      .cls-1 {
        fill: none;
      }

      .cls-2 {
        fill: #ffd408;
      }

      .cls-3 {
        clip-path: url(#clippath);
      }
    </style>
    <clipPath id="clippath">
      <rect class="cls-1" width="140" height="140"/>
    </clipPath>
  </defs>
  <g class="cls-3">
    <g>
      <g>
        <path class="cls-2" d="M110.72,100.91l-29.64-26.69c-.81-.73-1.83-1.08-2.84-1.08-1.01,0-2.03.35-2.84,1.08l-29.64,26.69c-1.73,1.56-1.87,4.23-.31,5.97,1.56,1.73,4.23,1.87,5.97.31l26.83-24.15,26.83,24.15c1.73,1.56,4.41,1.42,5.97-.31,1.56-1.73,1.42-4.41-.31-5.97Z"/>
        <circle class="cls-2" cx="78.35" cy="62.52" r="5.28"/>
      </g>
      <g>
        <path class="cls-2" d="M75.77,101.92l-27.92-48.36c-.98-1.7-2.96-2.45-4.76-1.96-.03,0-.07.02-.1.03-.07.02-.14.04-.21.07-.17.06-.33.12-.49.2-.37.18-.71.41-1.01.69s-.57.61-.79.99l-27.92,48.36c-1.17,2.02-.47,4.61,1.55,5.77s4.61.47,5.77-1.55l24.29-42.07,24.28,42.06c1.17,2.02,3.75,2.71,5.77,1.55h0c2.02-1.17,2.71-3.75,1.55-5.77Z"/>
        <circle class="cls-2" cx="44.12" cy="39.07" r="5.28"/>
        <rect class="cls-2" x="21.11" y="51.58" width="8.45" height="24.8" rx="4.23" ry="4.23" transform="translate(-39.16 40) rotate(-48)"/>
      </g>
      <path class="cls-2" d="M96.08,50.27l-3.34,5.25c-.96,1.51.07,3.49,1.86,3.56l6.22.27c4.83,4.65,12.28,5.94,18.56,2.67,7.87-4.1,10.92-13.8,6.83-21.66-4.1-7.87-13.8-10.92-21.66-6.83-6.28,3.27-9.49,10.11-8.45,16.74ZM118.69,44.27c1.94,3.72.49,8.32-3.23,10.26-3.72,1.94-8.32.49-10.26-3.23-1.94-3.72-.49-8.32,3.23-10.26,3.72-1.94,8.32-.49,10.26,3.23Z"/>
    </g>
  </g>
</svg>
